<svg width="60" height="60" viewBox="0 0 60 60" fill="none" xmlns="http://www.w3.org/2000/svg">
<path d="M39.6749 34.04C38.1282 34.04 36.8099 33.4983 35.7199 32.415C34.6299 31.3317 34.0849 30.0175 34.0849 28.4725C34.0849 26.9275 34.6266 25.61 35.7099 24.52C36.7932 23.43 38.1074 22.885 39.6524 22.885C41.1974 22.885 42.5149 23.4267 43.6049 24.51C44.6949 25.5933 45.2399 26.9067 45.2399 28.45C45.2399 29.9933 44.6982 31.3117 43.6149 32.405C42.5316 33.4983 41.2182 34.0433 39.6749 34.04ZM26.5874 47.115V44.29C26.5874 43.745 26.7232 43.2267 26.9949 42.735C27.2666 42.2433 27.6332 41.8475 28.0949 41.5475C29.8432 40.5508 31.6766 39.7875 33.5949 39.2575C35.5116 38.7275 37.5349 38.4625 39.6649 38.4625C41.7916 38.4625 43.8141 38.7275 45.7324 39.2575C47.6507 39.7875 49.4841 40.5508 51.2324 41.5475C51.6924 41.8458 52.0591 42.2417 52.3324 42.735C52.6057 43.2283 52.7416 43.7467 52.7399 44.29V47.115H26.5874ZM29.1724 43.8475V44.615H50.1549V43.8475C48.5049 42.9175 46.7949 42.2042 45.0249 41.7075C43.2549 41.2108 41.4682 40.9625 39.6649 40.9625C37.8599 40.9625 36.0724 41.2108 34.3024 41.7075C32.5341 42.2042 30.8241 42.9175 29.1724 43.8475ZM39.6649 31.54C40.4999 31.54 41.2216 31.2358 41.8299 30.6275C42.4382 30.0192 42.7416 29.2975 42.7399 28.4625C42.7382 27.6275 42.4349 26.905 41.8299 26.295C41.2249 25.685 40.5032 25.3817 39.6649 25.385C38.8266 25.3883 38.1041 25.6917 37.4974 26.295C36.8907 26.8983 36.5874 27.6208 36.5874 28.4625C36.5874 29.3042 36.8907 30.0258 37.4974 30.6275C38.1041 31.2292 38.8266 31.5333 39.6649 31.54ZM9.7124 33.75V31.25H27.2124V33.75H9.7124ZM9.7124 13.75V11.25H37.2124V13.75H9.7124ZM29.2399 23.75H9.7124V21.25H30.6724C30.3774 21.6383 30.1091 22.0325 29.8674 22.4325C29.6257 22.8325 29.4149 23.2717 29.2399 23.75Z" fill="#121212"/>
</svg>
