<svg width="60" height="60" viewBox="0 0 60 60" fill="none" xmlns="http://www.w3.org/2000/svg">
<g id="material-symbols-light:person-add-outline-rounded">
<path id="Vector" d="M45.625 26.2499H39.375C39.02 26.2499 38.7233 26.1299 38.485 25.8899C38.2467 25.6499 38.1267 25.3524 38.125 24.9974C38.1233 24.6424 38.2433 24.3457 38.485 24.1074C38.7267 23.8691 39.0233 23.7499 39.375 23.7499H45.625V17.4999C45.625 17.1449 45.745 16.8482 45.985 16.6099C46.225 16.3716 46.5225 16.2516 46.8775 16.2499C47.2325 16.2482 47.5292 16.3682 47.7675 16.6099C48.0058 16.8516 48.125 17.1482 48.125 17.4999V23.7499H54.375C54.73 23.7499 55.0267 23.8699 55.265 24.1099C55.5033 24.3499 55.6233 24.6474 55.625 25.0024C55.6267 25.3574 55.5067 25.6541 55.265 25.8924C55.0233 26.1307 54.7267 26.2499 54.375 26.2499H48.125V32.4999C48.125 32.8549 48.005 33.1516 47.765 33.3899C47.525 33.6282 47.2275 33.7482 46.8725 33.7499C46.5175 33.7516 46.2208 33.6316 45.9825 33.3899C45.7442 33.1482 45.625 32.8516 45.625 32.4999V26.2499ZM22.5 28.4624C20.4383 28.4624 18.6725 27.7274 17.2025 26.2574C15.7325 24.7874 14.9983 23.0224 15 20.9624C15.0017 18.9024 15.7358 17.1357 17.2025 15.6624C18.6692 14.1891 20.435 13.4566 22.5 13.4649C24.565 13.4732 26.3308 14.2066 27.7975 15.6649C29.2642 17.1232 29.9983 18.8899 30 20.9649C30.0017 23.0399 29.2675 24.8049 27.7975 26.2599C26.3275 27.7149 24.5617 28.4491 22.5 28.4624ZM5 43.9424V42.4224C5 41.3907 5.3 40.4257 5.9 39.5274C6.50167 38.6274 7.31 37.9291 8.325 37.4324C10.685 36.3007 13.0467 35.4524 15.41 34.8874C17.7717 34.3207 20.135 34.0374 22.5 34.0374C24.865 34.0374 27.2292 34.3207 29.5925 34.8874C31.9558 35.4541 34.3158 36.3024 36.6725 37.4324C37.6892 37.9291 38.4975 38.6274 39.0975 39.5274C39.6992 40.4257 40 41.3907 40 42.4224V43.9424C40 44.6757 39.7508 45.2924 39.2525 45.7924C38.7542 46.2891 38.1375 46.5374 37.4025 46.5374H7.6C6.865 46.5374 6.24833 46.2882 5.75 45.7899C5.25167 45.2916 5.00167 44.6757 5 43.9424ZM7.5 44.0399H37.5V42.4224C37.5 41.8691 37.3208 41.3482 36.9625 40.8599C36.6058 40.3732 36.1117 39.9616 35.48 39.6249C33.4233 38.6282 31.3025 37.8649 29.1175 37.3349C26.9325 36.8049 24.7267 36.5399 22.5 36.5399C20.2733 36.5399 18.0683 36.8049 15.885 37.3349C13.7017 37.8649 11.58 38.6282 9.52 39.6249C8.88667 39.9616 8.3925 40.3732 8.0375 40.8599C7.67917 41.3482 7.5 41.8699 7.5 42.4249V44.0399ZM22.5 25.9624C23.875 25.9624 25.0525 25.4724 26.0325 24.4924C27.0125 23.5124 27.5017 22.3349 27.5 20.9599C27.4983 19.5849 27.0092 18.4082 26.0325 17.4299C25.0558 16.4516 23.8783 15.9616 22.5 15.9599C21.1217 15.9582 19.945 16.4482 18.97 17.4299C17.995 18.4116 17.505 19.5882 17.5 20.9599C17.495 22.3316 17.985 23.5091 18.97 24.4924C19.955 25.4757 21.1317 25.9649 22.5 25.9599" fill="#121212"/>
</g>
</svg>
