<svg width="40" height="40" viewBox="0 0 40 40" fill="none" xmlns="http://www.w3.org/2000/svg">
<g id="material-symbols-light:attach-file">
<path id="Vector" d="M28.9098 25.8983C28.9098 28.4217 28.0404 30.5694 26.3015 32.3417C24.5626 34.1139 22.4354 35 19.9198 35C17.4043 35 15.272 34.1139 13.5232 32.3417C11.7743 30.5694 10.8987 28.4211 10.8965 25.8967V11.3467C10.8965 9.58333 11.5032 8.085 12.7165 6.85167C13.9276 5.61722 15.4154 5 17.1798 5C18.9443 5 20.432 5.61667 21.6432 6.85C22.8543 8.08333 23.4604 9.58222 23.4615 11.3467V25.1283C23.4615 26.1061 23.1198 26.9489 22.4365 27.6567C21.7543 28.3644 20.922 28.7183 19.9398 28.7183C18.9576 28.7183 18.1132 28.37 17.4065 27.6733C16.6998 26.9767 16.3465 26.1283 16.3465 25.1283V11.2817H18.0132V25.1283C18.0132 25.6606 18.1948 26.1139 18.5582 26.4883C18.9226 26.8639 19.3709 27.0517 19.9032 27.0517C20.4354 27.0517 20.8837 26.8639 21.2481 26.4883C21.6126 26.1128 21.7948 25.6594 21.7948 25.1283V11.315C21.7881 10.0194 21.3426 8.92111 20.4581 8.02C19.5748 7.11778 18.482 6.66667 17.1798 6.66667C15.8876 6.66667 14.7954 7.12278 13.9032 8.035C13.0098 8.94722 12.5632 10.0511 12.5632 11.3467V25.8967C12.5576 27.9556 13.2704 29.7094 14.7015 31.1583C16.1337 32.6083 17.8776 33.3333 19.9332 33.3333C21.9587 33.3333 23.6809 32.6083 25.0998 31.1583C26.5187 29.7083 27.2337 27.955 27.2448 25.8983V11.2817H28.9115L28.9098 25.8983Z" fill="#121212"/>
</g>
</svg>
