<svg width="60" height="60" viewBox="0 0 60 60" fill="none" xmlns="http://www.w3.org/2000/svg">
<path d="M14.04 50C12.8883 50 11.9275 49.615 11.1575 48.845C10.3875 48.075 10.0017 47.1133 10 45.96V14.04C10 12.8883 10.3858 11.9275 11.1575 11.1575C11.9292 10.3875 12.89 10.0017 14.04 10H38.9425L50 21.0575V45.9625C50 47.1125 49.615 48.0733 48.845 48.845C48.075 49.6167 47.1133 50.0017 45.96 50H14.04ZM14.04 47.5H45.9625C46.4108 47.5 46.7792 47.3558 47.0675 47.0675C47.3558 46.7792 47.5 46.4108 47.5 45.9625V22.5H37.5V12.5H14.04C13.59 12.5 13.2208 12.6442 12.9325 12.9325C12.6442 13.2208 12.5 13.59 12.5 14.04V45.9625C12.5 46.4108 12.6442 46.7792 12.9325 47.0675C13.2208 47.3558 13.59 47.5 14.04 47.5ZM18.75 40H41.25V37.5H18.75V40ZM18.75 22.5H30V20H18.75V22.5ZM18.75 31.25H41.25V28.75H18.75V31.25Z" fill="#121212"/>
</svg>
