<svg width="60" height="60" viewBox="0 0 60 60" fill="none" xmlns="http://www.w3.org/2000/svg">
<path d="M14.04 52.4999C12.8883 52.4999 11.9275 52.1149 11.1575 51.3449C10.3875 50.5749 10.0017 49.614 10 48.4624V16.5374C10 15.3874 10.3858 14.4274 11.1575 13.6574C11.9292 12.8874 12.89 12.5015 14.04 12.4999H18.4625V8.26988C18.4625 7.88155 18.59 7.55988 18.845 7.30488C19.1 7.04988 19.4208 6.92238 19.8075 6.92238C20.1942 6.92238 20.5158 7.04988 20.7725 7.30488C21.0292 7.55988 21.1567 7.88155 21.155 8.26988V12.4999H39.04V8.17488C39.04 7.81821 39.1592 7.51988 39.3975 7.27988C39.6358 7.03988 39.9333 6.92071 40.29 6.92238C40.6467 6.92405 40.9433 7.04321 41.18 7.27988C41.4167 7.51655 41.5367 7.81405 41.54 8.17238V12.4999H45.9625C47.1125 12.4999 48.0733 12.8857 48.845 13.6574C49.6167 14.429 50.0017 15.3899 50 16.5399V48.4624C50 49.6124 49.615 50.5732 48.845 51.3449C48.075 52.1165 47.1133 52.5015 45.96 52.4999H14.04ZM14.04 49.9999H45.9625C46.3458 49.9999 46.6983 49.8399 47.02 49.5199C47.3417 49.1999 47.5017 48.8465 47.5 48.4599V26.5399H12.5V48.4624C12.5 48.8457 12.66 49.1982 12.98 49.5199C13.3 49.8415 13.6525 50.0015 14.0375 49.9999M12.5 24.0374H47.5V16.5374C47.5 16.154 47.34 15.8015 47.02 15.4799C46.7 15.1582 46.3467 14.9982 45.96 14.9999H14.04C13.655 14.9999 13.3017 15.1599 12.98 15.4799C12.6583 15.7999 12.4983 16.1532 12.5 16.5399V24.0374ZM30 35.3849C29.4833 35.3849 29.0333 35.1932 28.65 34.8099C28.2667 34.4265 28.075 33.9765 28.075 33.4599C28.075 32.9432 28.2667 32.494 28.65 32.1124C29.0333 31.7307 29.4833 31.539 30 31.5374C30.5167 31.5357 30.9667 31.7274 31.35 32.1124C31.7333 32.4974 31.925 32.9474 31.925 33.4624C31.925 33.9774 31.7333 34.4265 31.35 34.8099C30.9667 35.1932 30.5167 35.3849 30 35.3849ZM20 35.3849C19.4833 35.3849 19.0333 35.1932 18.65 34.8099C18.2667 34.4265 18.075 33.9765 18.075 33.4599C18.075 32.9432 18.2667 32.494 18.65 32.1124C19.0333 31.7307 19.4833 31.539 20 31.5374C20.5167 31.5357 20.9667 31.7274 21.35 32.1124C21.7333 32.4974 21.925 32.9474 21.925 33.4624C21.925 33.9774 21.7333 34.4265 21.35 34.8099C20.9667 35.1932 20.5167 35.3849 20 35.3849ZM40 35.3849C39.4833 35.3849 39.0333 35.1932 38.65 34.8099C38.2667 34.4265 38.075 33.9765 38.075 33.4599C38.075 32.9432 38.2667 32.494 38.65 32.1124C39.0333 31.7307 39.4833 31.539 40 31.5374C40.5167 31.5357 40.9667 31.7274 41.35 32.1124C41.7333 32.4974 41.925 32.9474 41.925 33.4624C41.925 33.9774 41.7333 34.4265 41.35 34.8099C40.9667 35.1932 40.5167 35.3849 40 35.3849ZM30 44.9999C29.4833 44.9999 29.0333 44.8082 28.65 44.4249C28.2667 44.0415 28.075 43.5915 28.075 43.0749C28.075 42.5582 28.2667 42.109 28.65 41.7274C29.0333 41.3457 29.4833 41.154 30 41.1524C30.5167 41.1507 30.9667 41.3424 31.35 41.7274C31.7333 42.1124 31.925 42.5624 31.925 43.0774C31.925 43.5924 31.7333 44.0424 31.35 44.4274C30.9667 44.8124 30.5167 45.0032 30 44.9999ZM20 44.9999C19.4833 44.9999 19.0333 44.8082 18.65 44.4249C18.2667 44.0415 18.075 43.5915 18.075 43.0749C18.075 42.5582 18.2667 42.109 18.65 41.7274C19.0333 41.3457 19.4833 41.154 20 41.1524C20.5167 41.1507 20.9667 41.3424 21.35 41.7274C21.7333 42.1124 21.925 42.5624 21.925 43.0774C21.925 43.5924 21.7333 44.0424 21.35 44.4274C20.9667 44.8124 20.5167 45.0032 20 44.9999ZM40 44.9999C39.4833 44.9999 39.0333 44.8082 38.65 44.4249C38.2667 44.0415 38.075 43.5915 38.075 43.0749C38.075 42.5582 38.2667 42.109 38.65 41.7274C39.0333 41.3457 39.4833 41.154 40 41.1524C40.5167 41.1507 40.9667 41.3424 41.35 41.7274C41.7333 42.1124 41.925 42.5624 41.925 43.0774C41.925 43.5924 41.7333 44.0424 41.35 44.4274C40.9667 44.8124 40.5167 45.0032 40 44.9999Z" fill="#121212"/>
</svg>
