<svg width="60" height="60" viewBox="0 0 60 60" fill="none" xmlns="http://www.w3.org/2000/svg">
<path d="M30 53.4625V50.9625H47.5V47.5H39.8075V32.115H47.5V27.5C47.5 22.6667 45.7917 18.5417 42.375 15.125C38.9583 11.7083 34.8333 10 30 10C25.1667 10 21.0417 11.7083 17.625 15.125C14.2083 18.5417 12.5 22.6667 12.5 27.5V32.115H20.1925V47.5H10V27.4825C10 24.7375 10.5217 22.1508 11.565 19.7225C12.6083 17.2958 14.0383 15.1733 15.855 13.355C17.6717 11.5383 19.7967 10.1083 22.23 9.065C24.6633 8.02167 27.2533 7.5 30 7.5C32.7467 7.5 35.3367 8.02167 37.77 9.065C40.2033 10.1083 42.3283 11.5383 44.145 13.355C45.9617 15.1717 47.3917 17.2967 48.435 19.73C49.4783 22.1633 50 24.7533 50 27.5V53.4625H30ZM12.5 45H17.6925V34.615H12.5V45ZM42.3075 45H47.5V34.615H42.3075V45Z" fill="#121212"/>
</svg>
