<svg width="60" height="60" viewBox="0 0 60 60" fill="none" xmlns="http://www.w3.org/2000/svg">
<path d="M11.54 47.5C10.3883 47.5 9.4275 47.115 8.6575 46.345C7.8875 45.575 7.50167 44.6133 7.5 43.46V16.54C7.5 15.3883 7.88583 14.4275 8.6575 13.6575C9.42917 12.8875 10.3892 12.5017 11.5375 12.5H48.4625C49.6125 12.5 50.5725 12.8858 51.3425 13.6575C52.1125 14.4292 52.4983 15.39 52.5 16.54V27.79H50V16.54C50 16.155 49.84 15.8017 49.52 15.48C49.2 15.1583 48.8475 14.9983 48.4625 15H31.25V27.79H28.75V15H11.54C11.155 15 10.8017 15.16 10.48 15.48C10.1583 15.8 9.99833 16.1533 10 16.54V43.4625C10 43.8458 10.16 44.1983 10.48 44.52C10.8 44.8417 11.1525 45.0017 11.5375 45H28.75V47.5H11.54ZM37.5 52.5C36.8117 52.5 36.2225 52.2558 35.7325 51.7675C35.2425 51.2792 34.9983 50.69 35 50V43.125H37.5V50H50V43.125H52.5V50C52.5 50.69 52.2558 51.2792 51.7675 51.7675C51.2792 52.2558 50.69 52.5 50 52.5H37.5ZM35.1875 43.75C34.4042 43.75 33.7792 43.4442 33.3125 42.8325C32.8458 42.2208 32.6842 41.5233 32.8275 40.74L33.8275 35.74C33.9392 35.1533 34.2242 34.675 34.6825 34.305C35.1408 33.935 35.6633 33.75 36.25 33.75H51.25C51.8367 33.75 52.3592 33.935 52.8175 34.305C53.2758 34.675 53.5608 35.1533 53.6725 35.74L54.6725 40.74C54.8175 41.5233 54.6558 42.2208 54.1875 42.8325C53.7192 43.4442 53.0942 43.75 52.3125 43.75H35.1875ZM35.2725 41.25H52.225L51.245 36.25H36.255L35.2725 41.25ZM13.4625 38.75H25.2875V36.25H13.4625V38.75ZM13.4625 31.25H25.2875V28.75H13.4625V31.25ZM13.4625 23.75H25.2875V21.25H13.4625V23.75ZM34.7125 23.75V21.25H46.5375V23.75H34.7125Z" fill="#121212"/>
</svg>
