<svg width="60" height="60" viewBox="0 0 60 60" fill="none" xmlns="http://www.w3.org/2000/svg">
<path d="M15 47.5001H24.23V34.8076C24.23 34.2359 24.4242 33.7568 24.8125 33.3701C25.1992 32.9818 25.6783 32.7876 26.25 32.7876H33.75C34.3217 32.7876 34.8017 32.9818 35.19 33.3701C35.5767 33.7568 35.77 34.2359 35.77 34.8076V47.5001H45V25.7701C45 25.5134 44.9442 25.2801 44.8325 25.0701C44.7208 24.8601 44.5683 24.6768 44.375 24.5201L30.915 14.3751C30.6583 14.1518 30.3533 14.0401 30 14.0401C29.6467 14.0401 29.3425 14.1518 29.0875 14.3751L15.625 24.5201C15.4333 24.6801 15.2808 24.8634 15.1675 25.0701C15.0542 25.2768 14.9983 25.5101 15 25.7701V47.5001ZM12.5 47.5001V25.7701C12.5 25.1301 12.6433 24.5243 12.93 23.9526C13.2167 23.3809 13.6117 22.9101 14.115 22.5401L27.5775 12.3451C28.2825 11.8068 29.0875 11.5376 29.9925 11.5376C30.8975 11.5376 31.7075 11.8068 32.4225 12.3451L45.885 22.5376C46.39 22.9076 46.785 23.3793 47.07 23.9526C47.3567 24.5243 47.5 25.1301 47.5 25.7701V47.5001C47.5 48.1701 47.2508 48.7543 46.7525 49.2526C46.2542 49.7509 45.67 50.0001 45 50.0001H35.29C34.7167 50.0001 34.2367 49.8068 33.85 49.4201C33.4633 49.0318 33.27 48.5518 33.27 47.9801V35.2901H26.73V47.9801C26.73 48.5534 26.5367 49.0334 26.15 49.4201C25.7633 49.8068 25.2842 50.0001 24.7125 50.0001H15C14.33 50.0001 13.7458 49.7509 13.2475 49.2526C12.7492 48.7543 12.5 48.1701 12.5 47.5001Z" fill="#121212"/>
</svg>
