<svg width="25" height="20" viewBox="0 0 25 20" fill="none" xmlns="http://www.w3.org/2000/svg">
<g id="mdi-light:eye">
<path id="Vector" d="M11.9792 15C16.1458 15 19.75 13.15 21.6042 10.4167C19.75 7.68333 16.1458 5.83333 11.9792 5.83333C7.8125 5.83333 4.20833 7.68333 2.35417 10.4167C4.20833 13.15 7.8125 15 11.9792 15ZM11.9792 5C16.7292 5 20.8333 7.20833 22.7708 10.4167C20.8333 13.625 16.7292 15.8333 11.9792 15.8333C7.22917 15.8333 3.125 13.625 1.1875 10.4167C3.125 7.20833 7.22917 5 11.9792 5ZM11.9792 6.66667C14.5833 6.66667 16.6667 8.33333 16.6667 10.4167C16.6667 12.5 14.5833 14.1667 11.9792 14.1667C9.375 14.1667 7.29167 12.5 7.29167 10.4167C7.29167 8.33333 9.375 6.66667 11.9792 6.66667ZM11.9792 7.5C11.0122 7.5 10.0849 7.80729 9.40117 8.35427C8.71745 8.90125 8.33333 9.64312 8.33333 10.4167C8.33333 11.1902 8.71745 11.9321 9.40117 12.4791C10.0849 13.026 11.0122 13.3333 11.9792 13.3333C12.9461 13.3333 13.8734 13.026 14.5572 12.4791C15.2409 11.9321 15.625 11.1902 15.625 10.4167C15.625 9.64312 15.2409 8.90125 14.5572 8.35427C13.8734 7.80729 12.9461 7.5 11.9792 7.5Z" fill="#121212"/>
</g>
</svg>
