<svg width="60" height="60" viewBox="0 0 60 60" fill="none" xmlns="http://www.w3.org/2000/svg">
<path d="M15.1925 42.5L10.9325 46.76C10.3008 47.3917 9.57083 47.5367 8.7425 47.195C7.91417 46.8533 7.5 46.2325 7.5 45.3325V11.54C7.5 10.3883 7.88583 9.4275 8.6575 8.6575C9.42917 7.8875 10.39 7.50167 11.54 7.5H48.4625C49.6125 7.5 50.5733 7.88583 51.345 8.6575C52.1167 9.42917 52.5017 10.39 52.5 11.54V38.4625C52.5 39.6125 52.115 40.5733 51.345 41.345C50.575 42.1167 49.6142 42.5017 48.4625 42.5H15.1925ZM14.125 40H48.4625C48.8458 40 49.1983 39.84 49.52 39.52C49.8417 39.2 50.0017 38.8475 50 38.4625V11.5375C50 11.1542 49.84 10.8017 49.52 10.48C49.2 10.1583 48.8475 9.99833 48.4625 10H11.5375C11.1542 10 10.8017 10.16 10.48 10.48C10.1583 10.8 9.99833 11.1525 10 11.5375V44.1125L14.125 40ZM17.5 33.75H32.5C32.8567 33.75 33.1542 33.6308 33.3925 33.3925C33.6308 33.1542 33.75 32.8567 33.75 32.5C33.75 32.1433 33.6308 31.8458 33.3925 31.6075C33.1542 31.3692 32.8567 31.25 32.5 31.25H17.5C17.145 31.25 16.8475 31.3692 16.6075 31.6075C16.3675 31.8458 16.2483 32.1433 16.25 32.5C16.2517 32.8567 16.3708 33.1542 16.6075 33.3925C16.8442 33.6308 17.1417 33.75 17.5 33.75ZM17.5 26.25H42.5C42.8567 26.25 43.1542 26.1308 43.3925 25.8925C43.6308 25.6542 43.75 25.3567 43.75 25C43.75 24.6433 43.6308 24.3458 43.3925 24.1075C43.1542 23.8692 42.8567 23.75 42.5 23.75H17.5C17.145 23.75 16.8475 23.8692 16.6075 24.1075C16.3675 24.3458 16.2483 24.6433 16.25 25C16.2517 25.3567 16.3708 25.6542 16.6075 25.8925C16.8442 26.1308 17.1417 26.25 17.5 26.25ZM17.5 18.75H42.5C42.8567 18.75 43.1542 18.6308 43.3925 18.3925C43.6308 18.1542 43.75 17.8567 43.75 17.5C43.75 17.1433 43.6308 16.8458 43.3925 16.6075C43.1542 16.3692 42.8567 16.25 42.5 16.25H17.5C17.145 16.25 16.8475 16.3692 16.6075 16.6075C16.3675 16.8458 16.2483 17.1433 16.25 17.5C16.2517 17.8567 16.3708 18.1542 16.6075 18.3925C16.8442 18.6308 17.1417 18.75 17.5 18.75Z" fill="#121212"/>
</svg>
