<svg width="60" height="60" viewBox="0 0 60 60" fill="none" xmlns="http://www.w3.org/2000/svg">
<g id="material-symbols-light:account-circle-off-outline">
<path id="Vector" d="M30.0003 50.0004C32.3169 50.0004 34.5586 49.6212 36.7253 48.8629C38.8919 48.1045 40.8461 46.977 42.5878 45.4804C40.7828 44.0803 38.8128 43.0254 36.6778 42.3154C34.5428 41.6054 32.3169 41.2504 30.0003 41.2504C27.6836 41.2504 25.4419 41.5895 23.2753 42.2679C21.1086 42.9462 19.1544 44.017 17.4128 45.4804C19.1528 46.977 21.1069 48.1045 23.2753 48.8629C25.4436 49.6212 27.6853 50.0004 30.0003 50.0004ZM35.6653 28.6828L33.8803 26.9004C34.2486 26.4704 34.5278 25.977 34.7178 25.4204C34.9078 24.8637 35.0019 24.307 35.0003 23.7504C35.0003 22.3887 34.5078 21.2145 33.5228 20.2279C32.5361 19.2429 31.3619 18.7504 30.0003 18.7504C29.4436 18.7504 28.8869 18.8454 28.3303 19.0354C27.7736 19.2254 27.2811 19.5037 26.8528 19.8704L25.0678 18.0879C25.7511 17.4745 26.5136 17.0154 27.3553 16.7104C28.2003 16.4037 29.0894 16.2504 30.0228 16.2504C32.1044 16.2504 33.8711 16.9762 35.3228 18.4279C36.7744 19.8795 37.5003 21.6462 37.5003 23.7279C37.5003 24.6612 37.3469 25.5504 37.0403 26.3954C36.7353 27.2387 36.2769 28.0012 35.6653 28.6828ZM49.0478 42.0679L47.2028 40.2229C48.1194 38.6479 48.8153 37.0062 49.2903 35.2979C49.7653 33.5895 50.0019 31.8237 50.0003 30.0004C50.0003 24.417 48.0628 19.6879 44.1878 15.8129C40.3128 11.9379 35.5836 10.0004 30.0003 10.0004C28.1769 10.0004 26.4103 10.237 24.7003 10.7104C22.9936 11.1854 21.3528 11.8812 19.7778 12.7979L17.9328 10.9529C19.7494 9.81118 21.6778 8.95035 23.7178 8.37035C25.7578 7.79035 27.8519 7.50035 30.0003 7.50035C33.1136 7.50035 36.0386 8.09118 38.7753 9.27285C41.5119 10.4545 43.8936 12.0579 45.9203 14.0829C47.9469 16.1079 49.5486 18.4887 50.7253 21.2254C51.9019 23.962 52.4936 26.887 52.5003 30.0004C52.5003 32.1504 52.2103 34.2445 51.6303 36.2829C51.0503 38.3229 50.1894 40.2512 49.0478 42.0679ZM29.9828 52.5004C26.8761 52.5004 23.9578 51.9087 21.2278 50.7254C18.4961 49.5404 16.1169 47.9362 14.0903 45.9128C12.0619 43.8879 10.4569 41.507 9.27527 38.7704C8.09361 36.0337 7.50194 33.1104 7.50027 30.0004C7.50027 27.4454 7.90861 24.9695 8.72527 22.5729C9.54027 20.1762 10.7586 17.9837 12.3803 15.9954L4.71777 8.27035L6.50027 6.48535L54.5578 54.5429L52.7753 56.3279L14.1928 17.8079C12.8261 19.5745 11.7861 21.4879 11.0728 23.5479C10.3578 25.6095 10.0003 27.7604 10.0003 30.0004C10.0003 32.5804 10.4686 35.047 11.4053 37.4004C12.3403 39.752 13.7019 41.8562 15.4903 43.7129C17.6453 42.1962 19.9461 40.9904 22.3928 40.0954C24.8411 39.1987 27.3769 38.7504 30.0003 38.7504C32.2253 38.7504 34.3936 39.0937 36.5053 39.7803C38.6169 40.4654 40.6153 41.3878 42.5003 42.5479L45.9103 45.9579C43.7903 48.1078 41.3544 49.7362 38.6028 50.8428C35.8478 51.9479 32.9736 52.5004 29.9803 52.5004" fill="#121212"/>
</g>
</svg>
