<svg width="30" height="30" viewBox="0 0 30 30" fill="none" xmlns="http://www.w3.org/2000/svg">
<g id="prime:list">
<path id="Vector" d="M23.7503 15.9371H10.0003C9.75165 15.9371 9.51319 15.8384 9.33738 15.6625C9.16156 15.4867 9.06279 15.2483 9.06279 14.9996C9.06279 14.751 9.16156 14.5125 9.33738 14.3367C9.51319 14.1609 9.75165 14.0621 10.0003 14.0621H23.7503C23.9989 14.0621 24.2374 14.1609 24.4132 14.3367C24.589 14.5125 24.6878 14.751 24.6878 14.9996C24.6878 15.2483 24.589 15.4867 24.4132 15.6625C24.2374 15.8384 23.9989 15.9371 23.7503 15.9371ZM23.7503 10.3121H10.0003C9.75165 10.3121 9.51319 10.2134 9.33738 10.0375C9.16156 9.86172 9.06279 9.62327 9.06279 9.37463C9.06279 9.12599 9.16156 8.88753 9.33738 8.71171C9.51319 8.5359 9.75165 8.43713 10.0003 8.43713H23.7503C23.9989 8.43713 24.2374 8.5359 24.4132 8.71171C24.589 8.88753 24.6878 9.12599 24.6878 9.37463C24.6878 9.62327 24.589 9.86172 24.4132 10.0375C24.2374 10.2134 23.9989 10.3121 23.7503 10.3121ZM23.7503 21.5621H10.0003C9.75165 21.5621 9.51319 21.4634 9.33738 21.2875C9.16156 21.1117 9.06279 20.8733 9.06279 20.6246C9.06279 20.376 9.16156 20.1375 9.33738 19.9617C9.51319 19.7859 9.75165 19.6871 10.0003 19.6871H23.7503C23.9989 19.6871 24.2374 19.7859 24.4132 19.9617C24.589 20.1375 24.6878 20.376 24.6878 20.6246C24.6878 20.8733 24.589 21.1117 24.4132 21.2875C24.2374 21.4634 23.9989 21.5621 23.7503 21.5621ZM6.25029 10.6246C6.08777 10.6266 5.92643 10.5969 5.77529 10.5371C5.62622 10.4641 5.48751 10.3716 5.36279 10.2621C5.24694 10.1453 5.15528 10.0068 5.09308 9.85451C5.03087 9.70221 4.99934 9.53913 5.00029 9.37463C5.0049 9.04367 5.13437 8.72667 5.36279 8.48713C5.47938 8.37044 5.62021 8.28083 5.77529 8.22463C6.07962 8.0996 6.42096 8.0996 6.72529 8.22463C6.87873 8.28412 7.01891 8.37333 7.13779 8.48713C7.36621 8.72667 7.49569 9.04367 7.50029 9.37463C7.50124 9.53913 7.46971 9.70221 7.4075 9.85451C7.3453 10.0068 7.25364 10.1453 7.13779 10.2621C7.01307 10.3716 6.87436 10.4641 6.72529 10.5371C6.57415 10.5969 6.41281 10.6266 6.25029 10.6246ZM6.25029 16.2496C6.08694 16.2477 5.92557 16.2137 5.77529 16.1496C5.62436 16.0853 5.48501 15.9966 5.36279 15.8871C5.24694 15.7703 5.15528 15.6318 5.09308 15.4795C5.03087 15.3272 4.99934 15.1641 5.00029 14.9996C5.0049 14.6687 5.13437 14.3517 5.36279 14.1121C5.48501 14.0027 5.62436 13.914 5.77529 13.8496C6.00157 13.7447 6.25406 13.7099 6.50029 13.7496L6.72529 13.8246L6.95029 13.9371C7.01516 13.9841 7.07773 14.0342 7.13779 14.0871C7.37213 14.3329 7.50206 14.66 7.50029 14.9996C7.50029 15.3311 7.36859 15.6491 7.13417 15.8835C6.89975 16.1179 6.58181 16.2496 6.25029 16.2496ZM6.25029 21.8746C6.08777 21.8766 5.92643 21.8469 5.77529 21.7871C5.62622 21.7141 5.48751 21.6216 5.36279 21.5121C5.25332 21.3899 5.16464 21.2506 5.10029 21.0996C5.03416 20.95 5 20.7882 5 20.6246C5 20.461 5.03416 20.2993 5.10029 20.1496C5.16464 19.9987 5.25332 19.8593 5.36279 19.7371C5.53857 19.5637 5.76179 19.4462 6.00427 19.3995C6.24676 19.3527 6.49765 19.3789 6.72529 19.4746C6.87873 19.5341 7.01891 19.6233 7.13779 19.7371C7.24726 19.8593 7.33594 19.9987 7.40029 20.1496C7.46642 20.2993 7.50058 20.461 7.50058 20.6246C7.50058 20.7882 7.46642 20.95 7.40029 21.0996C7.33594 21.2506 7.24726 21.3899 7.13779 21.5121C7.02099 21.628 6.88247 21.7196 6.73017 21.7818C6.57788 21.844 6.4148 21.8756 6.25029 21.8746Z" fill="#121212"/>
</g>
</svg>
