<svg width="60" height="60" viewBox="0 0 60 60" fill="none" xmlns="http://www.w3.org/2000/svg">
<path d="M38.7499 48.655V43.75H32.7899C31.6699 43.75 30.7166 43.3567 29.9299 42.57C29.1433 41.7833 28.7499 40.8308 28.7499 39.7125V18.75H21.2499V23.655C21.2499 24.3883 21.0008 25.0042 20.5024 25.5025C20.0041 26.0008 19.3874 26.25 18.6524 26.25H8.84744C8.11411 26.25 7.49827 26.0008 6.99994 25.5025C6.50161 25.0042 6.25244 24.3875 6.25244 23.6525V11.35C6.25244 10.615 6.50161 9.99833 6.99994 9.5C7.49827 9.00167 8.11494 8.7525 8.84994 8.7525H18.6574C19.3908 8.7525 20.0066 9.00167 20.5049 9.5C21.0033 9.99833 21.2524 10.615 21.2524 11.35V16.25H38.7524V11.3475C38.7524 10.6125 39.0016 9.99583 39.4999 9.4975C39.9983 8.99917 40.6149 8.75 41.3499 8.75H51.1549C51.8899 8.75 52.5066 8.99917 53.0049 9.4975C53.5033 9.99583 53.7524 10.6125 53.7524 11.3475V23.655C53.7524 24.3883 53.5033 25.0042 53.0049 25.5025C52.5066 26.0008 51.8899 26.25 51.1549 26.25H41.3499C40.6149 26.25 39.9983 26.0008 39.4999 25.5025C39.0016 25.0042 38.7524 24.3875 38.7524 23.6525V18.75H31.2524V39.7125C31.2524 40.1608 31.3966 40.5292 31.6849 40.8175C31.9733 41.1058 32.3424 41.25 32.7924 41.25H38.7499V36.3475C38.7499 35.6125 38.9991 34.9958 39.4974 34.4975C39.9958 33.9992 40.6124 33.75 41.3474 33.75H51.1524C51.8874 33.75 52.5041 33.9992 53.0024 34.4975C53.5008 34.9958 53.7499 35.6125 53.7499 36.3475V48.6525C53.7499 49.3875 53.5008 50.0042 53.0024 50.5025C52.5041 51.0008 51.8874 51.25 51.1524 51.25H41.3499C40.6149 51.25 39.9983 51.0008 39.4999 50.5025C39.0016 50.0042 38.7524 49.3875 38.7524 48.6525M41.2499 23.75H51.2499V11.25H41.2499V23.75ZM41.2499 48.75H51.2499V36.25H41.2499V48.75ZM8.74994 23.75H18.7499V11.25H8.74994V23.75Z" fill="#121212"/>
</svg>
