<svg width="40px" height="40px" viewBox="0 0 70 70" fill="none" xmlns="http://www.w3.org/2000/svg">
<g id="material-symbols-light:search">
<path id="Vector" d="M56.831 58.7825L38.5669 40.5183C37.1085 41.7608 35.4314 42.7224 33.5356 43.4029C31.6398 44.0835 29.7342 44.4238 27.8189 44.4238C23.1484 44.4238 19.1953 42.807 15.9598 39.5733C12.7242 36.3397 11.1064 32.3876 11.1064 27.7171C11.1064 23.0465 12.7223 19.0925 15.9539 15.855C19.1856 12.6175 23.1367 10.9968 27.8073 10.9929C32.4778 10.989 36.4328 12.6068 39.6723 15.8463C42.9117 19.0857 44.5314 23.0397 44.5314 27.7083C44.5314 29.7345 44.1727 31.6954 43.4552 33.5913C42.7377 35.4871 41.7946 37.1088 40.626 38.4563L58.8902 56.7175L56.831 58.7825ZM27.8219 41.5042C31.6913 41.5042 34.958 40.1722 37.6219 37.5083C40.2858 34.8445 41.6177 31.5768 41.6177 27.7054C41.6177 23.834 40.2858 20.5674 37.6219 17.9054C34.958 15.2435 31.6913 13.9115 27.8219 13.9096C23.9524 13.9076 20.6848 15.2396 18.0189 17.9054C15.3531 20.5713 14.0212 23.8379 14.0231 27.7054C14.0251 31.5729 15.357 34.8396 18.0189 37.5054C20.6809 40.1713 23.9476 41.5032 27.8189 41.5013" fill="#121212"/>
</g>
</svg>
