<svg width="101" height="93" viewBox="0 0 101 93" fill="none" xmlns="http://www.w3.org/2000/svg">
<g id="Group">
<path id="Vector" d="M50.4967 1.23804V91.238C33.2002 91.238 20.3489 68.338 20.3489 68.338H6.01999C4.70932 68.338 3.45234 67.8113 2.52556 66.8736C1.59878 65.9359 1.07813 64.6641 1.07812 63.338V28.763C1.07812 27.437 1.59878 26.1652 2.52556 25.2275C3.45234 24.2898 4.70932 23.763 6.01999 23.763H20.3489C20.3489 23.763 33.2002 1.23804 50.4967 1.23804Z" fill="#121212" stroke="#121212" stroke-width="2" stroke-linejoin="round"/>
<path id="Vector_2" d="M70.2646 23.738C71.8083 25.1359 73.2029 26.6936 74.4257 28.3855C78.1604 33.5696 80.1649 39.823 80.1484 46.238C80.1484 52.873 78.058 59.0055 74.5196 63.963C73.2744 65.7043 71.8479 67.3052 70.2646 68.738" stroke="#121212" stroke-width="2" stroke-linecap="round" stroke-linejoin="round"/>
<path id="Vector_3" d="M75.7891 89.203C90.2391 80.478 99.9152 64.5005 99.9152 46.238C99.9152 28.258 90.5356 12.498 76.4587 3.68799" stroke="#121212" stroke-width="2" stroke-linecap="round"/>
</g>
</svg>
